<svg width="152" height="46" viewBox="0 0 152 46" fill="none" xmlns="http://www.w3.org/2000/svg"><path d="M42.6247 19.4258C42.6247 32.0669 32.3794 42.3121 19.7383 42.3121" stroke="#4677FF" stroke-width="6.96161" stroke-miterlimit="10"></path><path d="M19.7383 10.9297C24.4316 10.9297 28.2315 14.7353 28.2315 19.4228C28.2315 24.1103 24.4258 27.9159 19.7383 27.9159" stroke="#4677FF" stroke-width="6.96161" stroke-miterlimit="10"></path><path d="M19.739 35.1695C11.0428 35.1695 4 28.1209 4 19.4305C4 10.7401 11.0486 3.69141 19.739 3.69141" stroke="#4677FF" stroke-width="6.96161" stroke-miterlimit="10"></path><path d="M54.8086 23.9688H56.9957V33.8775H54.8086V23.9688Z" fill="#09164B"></path><path d="M103.089 8.4886H103.403C103.469 8.4886 103.518 8.47398 103.551 8.44474C103.584 8.41551 103.6 8.36799 103.6 8.30221C103.6 8.23885 103.584 8.19317 103.551 8.16515C103.518 8.13591 103.469 8.12129 103.403 8.12129H103.089V8.4886ZM102.802 7.89834H103.505C103.564 7.89834 103.616 7.90809 103.663 7.92758C103.71 7.94586 103.75 7.97144 103.783 8.00433C103.817 8.03723 103.843 8.0756 103.86 8.11946C103.878 8.1621 103.887 8.2084 103.887 8.25835C103.887 8.3351 103.871 8.4015 103.838 8.45754C103.806 8.51358 103.754 8.55622 103.681 8.58546V8.58911C103.716 8.59886 103.745 8.61409 103.769 8.6348C103.792 8.65429 103.811 8.67805 103.825 8.70607C103.84 8.73287 103.85 8.76272 103.856 8.79561C103.864 8.8285 103.868 8.8614 103.871 8.89429C103.872 8.915 103.873 8.93937 103.875 8.96739C103.876 8.99541 103.878 9.02404 103.88 9.05328C103.884 9.08252 103.889 9.11054 103.895 9.13734C103.902 9.16292 103.912 9.18485 103.926 9.20312H103.639C103.623 9.1617 103.613 9.11236 103.61 9.0551C103.606 8.99784 103.6 8.94302 103.593 8.89064C103.583 8.82241 103.563 8.77246 103.531 8.74079C103.499 8.70911 103.448 8.69327 103.376 8.69327H103.089V9.20312H102.802V7.89834Z" fill="#09164B"></path><path d="M54.8086 6.98168H56.8799V8.32183H56.9204C57.2278 7.74749 57.6571 7.33553 58.2024 7.08607C58.7536 6.83661 59.3455 6.71484 59.9836 6.71484C60.761 6.71484 61.4456 6.85405 62.0257 7.12672C62.6059 7.39938 63.0872 7.77644 63.4701 8.25795C63.853 8.73946 64.1432 9.29647 64.3346 9.93462C64.5261 10.5728 64.6247 11.2573 64.6247 11.9825C64.6247 12.6497 64.5376 13.2935 64.3635 13.9201C64.1895 14.5466 63.9284 15.0978 63.5803 15.5793C63.2322 16.0608 62.7856 16.4437 62.2461 16.728C61.7124 17.018 61.08 17.1573 60.349 17.1573C60.03 17.1573 59.711 17.1283 59.3919 17.0703C59.0728 17.0123 58.7651 16.9195 58.4693 16.7918C58.1734 16.6642 57.9066 16.5017 57.6571 16.3045C57.4077 16.1072 57.1989 15.8752 57.0365 15.6025H56.9957V20.0579H54.8086V6.98168ZM62.4376 11.9477C62.4376 11.501 62.3794 11.0659 62.2634 10.6424C62.1474 10.2189 61.9735 9.84762 61.7473 9.52275C61.5152 9.19787 61.2308 8.93675 60.8827 8.73951C60.5404 8.54226 60.1403 8.44363 59.6936 8.44363C58.7712 8.44363 58.0807 8.76265 57.6166 9.4008C57.1525 10.0389 56.9147 10.886 56.9147 11.9477C56.9147 12.4466 56.9727 12.9106 57.0946 13.3341C57.2164 13.7576 57.3962 14.129 57.6399 14.4365C57.8835 14.7439 58.1736 14.9876 58.5101 15.1674C58.8465 15.3473 59.2409 15.4343 59.6876 15.4343C60.1865 15.4343 60.6101 15.3298 60.9524 15.1268C61.3005 14.9237 61.5788 14.6568 61.8051 14.3319C62.0313 14.0071 62.188 13.6358 62.2866 13.2181C62.3794 12.8004 62.4316 12.377 62.4316 11.9419L62.4376 11.9477Z" fill="#09164B"></path><path d="M74.9676 16.8892H72.8212V15.5084H72.7807C72.5139 16.0073 72.1135 16.4077 71.5856 16.7035C71.0577 17.0052 70.5181 17.1561 69.967 17.1561C68.6617 17.1561 67.7218 16.8312 67.1417 16.1873C66.5616 15.5433 66.2715 14.5687 66.2715 13.2634V6.98047H68.4586V13.0545C68.4586 13.9247 68.6268 14.5397 68.9574 14.8936C69.2881 15.2533 69.7581 15.4273 70.3557 15.4273C70.814 15.4273 71.1968 15.3576 71.5043 15.2184C71.8118 15.0791 72.0613 14.8877 72.2527 14.6556C72.4441 14.4236 72.5834 14.1335 72.6646 13.8029C72.7458 13.4722 72.7864 13.1126 72.7864 12.7297V6.98047H74.9735V16.8892H74.9676Z" fill="#09164B"></path><path d="M77.1328 3.69141H79.3196V16.8837H77.1328V3.69141Z" fill="#09164B"></path><path d="M83.154 13.7055C83.2178 14.3436 83.4614 14.7904 83.8849 15.0456C84.3084 15.3009 84.8133 15.4285 85.3992 15.4285C85.6023 15.4285 85.8343 15.411 86.1011 15.382C86.3622 15.353 86.6059 15.2892 86.8379 15.2021C87.07 15.1151 87.2555 14.9817 87.4005 14.8077C87.5455 14.6337 87.6152 14.4074 87.6036 14.129C87.592 13.8505 87.4874 13.6185 87.296 13.4387C87.1045 13.2588 86.8611 13.1138 86.5595 13.0094C86.2578 12.8991 85.9155 12.8063 85.5326 12.7309C85.1497 12.6555 84.7609 12.5684 84.3664 12.4813C83.9603 12.3943 83.5659 12.2841 83.1889 12.1564C82.8118 12.0288 82.4753 11.8548 82.1736 11.6402C81.872 11.4255 81.634 11.1471 81.4541 10.8048C81.2743 10.4683 81.1873 10.0506 81.1873 9.55164C81.1873 9.01792 81.3208 8.56551 81.5819 8.20002C81.8429 7.83454 82.1735 7.54446 82.5796 7.31821C82.9856 7.09195 83.4266 6.94108 83.9197 6.84826C84.4128 6.75544 84.8828 6.71484 85.3295 6.71484C85.84 6.71484 86.3272 6.76707 86.7971 6.8773C87.2612 6.98752 87.6848 7.16151 88.0619 7.40517C88.439 7.64883 88.7524 7.96218 89.0018 8.35667C89.2513 8.75116 89.4077 9.21523 89.4715 9.76636H87.1917C87.0873 9.24424 86.8493 8.89031 86.4722 8.71047C86.0951 8.53063 85.6659 8.44363 85.1785 8.44363C85.0277 8.44363 84.8421 8.45528 84.6332 8.48428C84.4244 8.51329 84.2271 8.5597 84.0415 8.62932C83.8559 8.69893 83.6992 8.80337 83.5716 8.9368C83.4439 9.07024 83.3801 9.24422 83.3801 9.46468C83.3801 9.73154 83.4732 9.95206 83.6588 10.1145C83.8444 10.2827 84.088 10.4161 84.3896 10.5264C84.6913 10.6366 85.0336 10.7294 85.4165 10.8048C85.7994 10.8802 86.1996 10.9672 86.6057 11.0542C87.0001 11.1413 87.3946 11.2515 87.7775 11.3791C88.1604 11.5068 88.5027 11.6808 88.8044 11.8954C89.1061 12.1101 89.3499 12.3886 89.5355 12.7193C89.7211 13.05 89.814 13.4618 89.814 13.9433C89.814 14.5292 89.6804 15.0282 89.4077 15.4401C89.1409 15.8462 88.7929 16.1826 88.3636 16.4379C87.9343 16.6932 87.4585 16.8788 86.9306 16.9948C86.4084 17.1108 85.8865 17.1689 85.376 17.1689C84.7494 17.1689 84.1693 17.0992 83.6356 16.96C83.1019 16.8207 82.6433 16.6062 82.2546 16.3161C81.866 16.026 81.5586 15.6721 81.3323 15.2428C81.1061 14.8135 80.9901 14.3088 80.9785 13.7171H83.1656L83.154 13.7055Z" fill="#09164B"></path><path d="M92.9643 12.4969C92.9643 12.8798 93.0166 13.251 93.1269 13.6107C93.2371 13.9704 93.3994 14.2837 93.6141 14.5506C93.8287 14.8174 94.1072 15.0321 94.4378 15.1946C94.7685 15.357 95.169 15.4324 95.6273 15.4324C96.2654 15.4324 96.7816 15.2932 97.1702 15.0205C97.5589 14.7478 97.849 14.3359 98.0404 13.7847H100.112C99.9957 14.3185 99.7984 14.8 99.52 15.2235C99.2357 15.647 98.8992 16.0009 98.5047 16.2852C98.1102 16.5752 97.6634 16.7899 97.1702 16.935C96.6771 17.08 96.1668 17.1554 95.6273 17.1554C94.8499 17.1554 94.1594 17.0278 93.556 16.7725C92.9527 16.5173 92.448 16.1575 92.0303 15.6992C91.6126 15.2409 91.2993 14.6897 91.0904 14.0516C90.8816 13.4134 90.7715 12.7115 90.7715 11.9458C90.7715 11.2438 90.8818 10.5767 91.108 9.94433C91.3343 9.31199 91.6533 8.75499 92.0652 8.27928C92.4829 7.79777 92.9817 7.4207 93.5676 7.14224C94.1536 6.86377 94.8208 6.71875 95.5576 6.71875C96.335 6.71875 97.037 6.88124 97.6577 7.20611C98.2785 7.53099 98.7888 7.96608 99.2007 8.4998C99.6068 9.03353 99.9085 9.65424 100.094 10.3504C100.28 11.0466 100.326 11.7659 100.239 12.5085H92.9586L92.9643 12.4969ZM98.058 11.064C98.0348 10.7217 97.9595 10.3852 97.8376 10.0661C97.7158 9.74706 97.5474 9.46863 97.3385 9.23078C97.1297 8.99292 96.8745 8.80148 96.5728 8.65645C96.2712 8.51142 95.9347 8.43593 95.5692 8.43593C95.2037 8.43593 94.8384 8.5056 94.5251 8.63903C94.2118 8.77246 93.9449 8.95808 93.7186 9.19594C93.4924 9.43379 93.3184 9.71222 93.1849 10.0313C93.0515 10.3504 92.9759 10.6985 92.9643 11.064H98.0637H98.058Z" fill="#09164B"></path><path d="M59.1814 23.9661H61.2527V25.4222L61.2932 25.4629C61.6239 24.9117 62.059 24.4824 62.5985 24.1692C63.1322 23.8559 63.7297 23.6992 64.3794 23.6992C65.4643 23.6992 66.323 23.9777 66.9495 24.5404C67.5761 25.1031 67.8894 25.9444 67.8894 27.0698V33.8748H65.7023V27.65C65.6791 26.8726 65.5109 26.304 65.2035 25.9559C64.896 25.6078 64.4203 25.428 63.7647 25.428C63.3934 25.428 63.0626 25.4977 62.7668 25.6311C62.4709 25.7645 62.2214 25.9502 62.0184 26.188C61.8153 26.4259 61.6529 26.7043 61.5368 27.0234C61.4208 27.3425 61.3629 27.6789 61.3629 28.0386V33.8806H59.1758V23.9719L59.1814 23.9661Z" fill="#09164B"></path><path d="M68.9941 23.9674H70.6416V21.4844H72.8288V23.9674H74.8014V25.5976H72.8288V30.8883C72.8288 31.1204 72.8405 31.3176 72.8579 31.4801C72.8753 31.6483 72.9217 31.7875 72.9913 31.9036C73.061 32.0196 73.1653 32.1067 73.3103 32.1647C73.4495 32.2228 73.6411 32.2517 73.8848 32.2517C74.0356 32.2517 74.1923 32.2517 74.3431 32.2401C74.4939 32.2343 74.6506 32.211 74.8014 32.1704V33.8587C74.5578 33.8819 74.3198 33.9108 74.0935 33.934C73.8615 33.9572 73.6293 33.9747 73.3857 33.9747C72.8113 33.9747 72.3474 33.9225 71.9993 33.8122C71.6513 33.702 71.3728 33.5453 71.1756 33.3307C70.9783 33.1218 70.8447 32.855 70.7751 32.536C70.7054 32.2169 70.6648 31.8513 70.6532 31.4452V25.6034H69.0058V23.9732L68.9941 23.9674Z" fill="#09164B"></path><path d="M77.8803 29.4851C77.8803 29.868 77.9327 30.2393 78.0429 30.599C78.1531 30.9586 78.3155 31.272 78.5301 31.5388C78.7448 31.8057 79.0232 32.0203 79.3538 32.1827C79.6845 32.3452 80.085 32.4207 80.5433 32.4207C81.1814 32.4207 81.6976 32.2815 82.0863 32.0088C82.4749 31.7361 82.765 31.3242 82.9565 30.773H85.0277C84.9117 31.3068 84.7144 31.7883 84.436 32.2118C84.1517 32.6353 83.8152 32.9892 83.4207 33.2734C83.0262 33.5635 82.5794 33.7781 82.0863 33.9231C81.5931 34.0682 81.0828 34.1436 80.5433 34.1436C79.7659 34.1436 79.0754 34.0161 78.472 33.7608C77.8687 33.5055 77.364 33.1458 76.9463 32.6875C76.5286 32.2292 76.2153 31.678 76.0065 31.0399C75.7976 30.4017 75.6875 29.6998 75.6875 28.934C75.6875 28.2321 75.7978 27.565 76.024 26.9326C76.2503 26.3003 76.5693 25.7433 76.9812 25.2676C77.3989 24.786 77.8977 24.409 78.4836 24.1305C79.0696 23.8521 79.7368 23.707 80.4736 23.707C81.251 23.707 81.953 23.8694 82.5738 24.1943C83.1945 24.5191 83.7048 24.9544 84.1167 25.4881C84.5228 26.0218 84.8245 26.6425 85.0102 27.3387C85.1958 28.0348 85.2422 28.7542 85.1552 29.4968H77.8746L77.8803 29.4851ZM82.9797 28.0464C82.9565 27.7041 82.8811 27.3677 82.7593 27.0486C82.6375 26.7295 82.4693 26.4511 82.2605 26.2133C82.0516 25.9754 81.7962 25.784 81.4945 25.6389C81.1928 25.4939 80.8564 25.4184 80.4909 25.4184C80.1254 25.4184 79.76 25.4881 79.4468 25.6215C79.1335 25.7549 78.8665 25.9406 78.6403 26.1784C78.414 26.4163 78.24 26.6947 78.1066 27.0138C77.9732 27.3328 77.8978 27.6809 77.8862 28.0464H82.9856H82.9797Z" fill="#09164B"></path><path d="M86.6934 20.6797H88.8805V33.8719H86.6934V20.6797Z" fill="#09164B"></path><path d="M91.1191 20.6797H93.3063V33.8719H91.1191V20.6797Z" fill="#09164B"></path><path d="M95.5469 23.9688H97.734V33.8775H95.5469V23.9688Z" fill="#09164B"></path><path d="M109.073 33.3545C109.073 34.8512 108.656 35.9651 107.82 36.6961C106.985 37.4328 105.778 37.7984 104.206 37.7984C103.707 37.7984 103.208 37.7462 102.704 37.6476C102.199 37.5432 101.741 37.3748 101.323 37.1312C100.905 36.8875 100.557 36.5685 100.279 36.174C100 35.7795 99.8318 35.2922 99.7796 34.7179H101.967C102.031 35.0253 102.141 35.2748 102.292 35.4663C102.442 35.6577 102.628 35.8086 102.837 35.9188C103.046 36.029 103.278 36.0985 103.539 36.1276C103.794 36.1566 104.061 36.174 104.345 36.174C105.227 36.174 105.871 35.9593 106.283 35.5242C106.689 35.0891 106.898 34.4626 106.898 33.6446V32.1305H106.857C106.55 32.6816 106.132 33.1051 105.604 33.4126C105.076 33.72 104.502 33.8709 103.887 33.8709C103.092 33.8709 102.419 33.7317 101.868 33.459C101.311 33.1864 100.853 32.8092 100.487 32.3276C100.122 31.8461 99.8609 31.2951 99.6926 30.6685C99.5244 30.042 99.4434 29.3749 99.4434 28.6555C99.4434 27.9941 99.5477 27.3618 99.7507 26.7584C99.9538 26.1609 100.25 25.633 100.633 25.1805C101.015 24.728 101.485 24.3682 102.042 24.0956C102.599 23.8287 103.226 23.6953 103.928 23.6953C104.554 23.6953 105.129 23.8287 105.651 24.0898C106.173 24.3508 106.579 24.7628 106.857 25.3255H106.898V23.9622H109.085V33.3487L109.073 33.3545ZM104.229 32.1479C104.717 32.1479 105.129 32.0493 105.465 31.852C105.802 31.6548 106.08 31.3937 106.289 31.0688C106.498 30.7439 106.654 30.3727 106.747 29.955C106.84 29.5431 106.892 29.1195 106.892 28.7018C106.892 28.2841 106.84 27.8723 106.741 27.4778C106.637 27.0833 106.48 26.7294 106.272 26.4219C106.063 26.1144 105.784 25.8708 105.448 25.6909C105.111 25.5111 104.705 25.4241 104.229 25.4241C103.754 25.4241 103.336 25.5285 103.005 25.7316C102.675 25.9346 102.402 26.2014 102.199 26.5263C101.996 26.8512 101.845 27.2226 101.758 27.6403C101.671 28.058 101.625 28.4698 101.625 28.8759C101.625 29.282 101.677 29.6823 101.776 30.071C101.88 30.4597 102.036 30.8078 102.245 31.1153C102.454 31.4227 102.727 31.6722 103.052 31.8637C103.377 32.0551 103.771 32.1537 104.229 32.1537V32.1479Z" fill="#09164B"></path><path d="M112.792 29.4851C112.792 29.868 112.845 30.2393 112.955 30.599C113.065 30.9586 113.228 31.272 113.442 31.5388C113.657 31.8057 113.935 32.0203 114.266 32.1827C114.597 32.3452 114.997 32.4207 115.455 32.4207C116.093 32.4207 116.61 32.2815 116.998 32.0088C117.387 31.7361 117.677 31.3242 117.869 30.773H119.94C119.824 31.3068 119.626 31.7883 119.348 32.2118C119.064 32.6353 118.727 32.9892 118.333 33.2734C117.938 33.5635 117.491 33.7781 116.998 33.9231C116.505 34.0682 115.995 34.1436 115.455 34.1436C114.678 34.1436 113.987 34.0161 113.384 33.7608C112.781 33.5055 112.276 33.1458 111.858 32.6875C111.441 32.2292 111.127 31.678 110.919 31.0399C110.71 30.4017 110.6 29.6998 110.6 28.934C110.6 28.2321 110.71 27.565 110.936 26.9326C111.162 26.3003 111.481 25.7433 111.893 25.2676C112.311 24.786 112.81 24.409 113.396 24.1305C113.982 23.8521 114.649 23.707 115.386 23.707C116.163 23.707 116.865 23.8694 117.486 24.1943C118.106 24.5191 118.617 24.9544 119.029 25.4881C119.435 26.0218 119.737 26.6425 119.922 27.3387C120.108 28.0348 120.154 28.7542 120.067 29.4968H112.787L112.792 29.4851ZM117.892 28.0464C117.869 27.7041 117.793 27.3677 117.671 27.0486C117.55 26.7295 117.381 26.4511 117.172 26.2133C116.963 25.9754 116.708 25.784 116.407 25.6389C116.105 25.4939 115.768 25.4184 115.403 25.4184C115.038 25.4184 114.672 25.4881 114.359 25.6215C114.046 25.7549 113.779 25.9406 113.552 26.1784C113.326 26.4163 113.152 26.6947 113.019 27.0138C112.885 27.3328 112.81 27.6809 112.798 28.0464H117.897H117.892Z" fill="#09164B"></path><path d="M121.555 23.9661H123.626V25.4222L123.667 25.4629C123.997 24.9117 124.432 24.4824 124.972 24.1692C125.506 23.8559 126.103 23.6992 126.753 23.6992C127.838 23.6992 128.696 23.9777 129.323 24.5404C129.949 25.1031 130.262 25.9444 130.262 27.0698V33.8748H128.075V27.65C128.052 26.8726 127.884 26.304 127.577 25.9559C127.269 25.6078 126.793 25.428 126.138 25.428C125.766 25.428 125.436 25.4977 125.14 25.6311C124.844 25.7645 124.595 25.9502 124.392 26.188C124.189 26.4259 124.026 26.7043 123.91 27.0234C123.794 27.3425 123.736 27.6789 123.736 28.0386V33.8806H121.549V23.9719L121.555 23.9661Z" fill="#09164B"></path><path d="M139.043 27.2805C138.956 26.6656 138.707 26.2073 138.307 25.894C137.906 25.5808 137.396 25.4241 136.781 25.4241C136.502 25.4241 136.201 25.4705 135.882 25.5691C135.563 25.6678 135.267 25.8418 135 26.1028C134.733 26.3639 134.507 26.7294 134.327 27.1935C134.147 27.6576 134.06 28.2725 134.06 29.0209C134.06 29.427 134.107 29.839 134.205 30.2451C134.298 30.6511 134.455 31.0166 134.664 31.3356C134.872 31.6547 135.145 31.9158 135.476 32.1131C135.806 32.3103 136.212 32.4089 136.682 32.4089C137.321 32.4089 137.848 32.2117 138.26 31.8172C138.672 31.4227 138.933 30.8657 139.038 30.1521H141.225C141.022 31.44 140.534 32.4321 139.757 33.1109C138.985 33.7954 137.959 34.1377 136.682 34.1377C135.905 34.1377 135.214 34.0043 134.623 33.7433C134.031 33.4822 133.526 33.1225 133.12 32.67C132.714 32.2175 132.401 31.6779 132.192 31.0514C131.983 30.4248 131.873 29.7461 131.873 29.0209C131.873 28.2957 131.977 27.5823 132.18 26.9325C132.383 26.2828 132.691 25.7141 133.103 25.2384C133.509 24.7569 134.02 24.3856 134.629 24.1072C135.238 23.8345 135.945 23.6953 136.763 23.6953C137.338 23.6953 137.883 23.7707 138.4 23.9157C138.916 24.0607 139.374 24.2813 139.78 24.5771C140.186 24.873 140.511 25.2442 140.767 25.6909C141.022 26.1376 141.173 26.6656 141.225 27.2805H139.038H139.043Z" fill="#09164B"></path><path d="M144.525 29.4851C144.525 29.868 144.577 30.2393 144.687 30.599C144.798 30.9586 144.96 31.272 145.175 31.5388C145.389 31.8057 145.668 32.0203 145.999 32.1827C146.329 32.3452 146.73 32.4207 147.188 32.4207C147.826 32.4207 148.342 32.2815 148.731 32.0088C149.12 31.7361 149.41 31.3242 149.601 30.773H151.672C151.556 31.3068 151.359 31.7883 151.081 32.2118C150.796 32.6353 150.46 32.9892 150.065 33.2734C149.671 33.5635 149.224 33.7781 148.731 33.9231C148.238 34.0682 147.727 34.1436 147.188 34.1436C146.41 34.1436 145.72 34.0161 145.117 33.7608C144.514 33.5055 144.009 33.1458 143.591 32.6875C143.173 32.2292 142.86 31.678 142.651 31.0399C142.442 30.4017 142.332 29.6998 142.332 28.934C142.332 28.2321 142.442 27.565 142.669 26.9326C142.895 26.3003 143.214 25.7433 143.626 25.2676C144.043 24.786 144.543 24.409 145.128 24.1305C145.714 23.8521 146.381 23.707 147.118 23.707C147.896 23.707 148.598 23.8694 149.218 24.1943C149.839 24.5191 150.35 24.9544 150.762 25.4881C151.168 26.0218 151.469 26.6425 151.655 27.3387C151.841 28.0348 151.887 28.7542 151.8 29.4968H144.519L144.525 29.4851ZM149.619 28.0464C149.595 27.7041 149.52 27.3677 149.398 27.0486C149.276 26.7295 149.108 26.4511 148.899 26.2133C148.69 25.9754 148.435 25.784 148.133 25.6389C147.832 25.4939 147.495 25.4184 147.13 25.4184C146.764 25.4184 146.399 25.4881 146.086 25.6215C145.772 25.7549 145.505 25.9406 145.279 26.1784C145.053 26.4163 144.879 26.6947 144.745 27.0138C144.612 27.3328 144.537 27.6809 144.525 28.0464H149.625H149.619Z" fill="#09164B"></path></svg>